<mxfile host="Electron" modified="2023-05-14T08:09:27.337Z" agent="Mozilla/5.0 (Windows NT 10.0; Win64; x64) AppleWebKit/537.36 (KHTML, like Gecko) draw.io/21.2.8 Chrome/112.0.5615.165 Electron/24.2.0 Safari/537.36" etag="9tRFCbgYJWuta0G-8wcG" version="21.2.8" type="device">
  <diagram name="Page-1" id="IovuPlnuYOxv74p460Sw">
    <mxGraphModel dx="2032" dy="683" grid="1" gridSize="10" guides="1" tooltips="1" connect="1" arrows="1" fold="1" page="1" pageScale="1" pageWidth="850" pageHeight="1100" math="0" shadow="0">
      <root>
        <mxCell id="0" />
        <mxCell id="1" parent="0" />
        <mxCell id="6MIaR3WKCf1RQzaY556U-82" value="" style="rounded=0;whiteSpace=wrap;html=1;fillColor=#00CC00;strokeWidth=2;strokeColor=#009900;" parent="1" vertex="1">
          <mxGeometry x="305.5" y="580" width="25" height="100" as="geometry" />
        </mxCell>
        <mxCell id="ki2tDZn7keGU7olpMhpC-15" value="" style="rounded=0;whiteSpace=wrap;html=1;fillColor=#00CC00;strokeWidth=2;strokeColor=#009900;" parent="1" vertex="1">
          <mxGeometry x="-318.5" y="340" width="25" height="340" as="geometry" />
        </mxCell>
        <mxCell id="lFbvkqLxVyMuqr9iLAXJ-2" value="&lt;font color=&quot;#009900&quot; style=&quot;&quot;&gt;&lt;b style=&quot;&quot;&gt;&lt;br&gt;&lt;/b&gt;&lt;/font&gt;" style="rounded=0;whiteSpace=wrap;html=1;strokeWidth=1;fillColor=none;strokeColor=#009900;dashed=1;dashPattern=8 8;" parent="1" vertex="1">
          <mxGeometry x="-380" y="590" width="740" height="70" as="geometry" />
        </mxCell>
        <mxCell id="tjZRGbeKw34wrT0C9eUE-2" value="&lt;i style=&quot;border-color: var(--border-color); color: rgb(0, 153, 0);&quot;&gt;&lt;font style=&quot;border-color: var(--border-color); font-size: 15px;&quot;&gt;&amp;lt;&amp;lt;HttpServlet&amp;gt;&amp;gt;&lt;/font&gt;&lt;/i&gt;&lt;font color=&quot;#009900&quot; style=&quot;&quot;&gt;&lt;b style=&quot;&quot;&gt;&lt;br&gt;&lt;span style=&quot;font-size: 15px;&quot;&gt;openAuctions&lt;br&gt;WithSearch&lt;/span&gt;&lt;br&gt;&lt;/b&gt;&lt;/font&gt;" style="rounded=0;whiteSpace=wrap;html=1;strokeWidth=3;fillColor=default;strokeColor=#009900;" parent="1" vertex="1">
          <mxGeometry x="-170" y="220" width="150" height="60" as="geometry" />
        </mxCell>
        <mxCell id="tjZRGbeKw34wrT0C9eUE-3" value="&lt;font color=&quot;#009900&quot; style=&quot;&quot;&gt;&lt;i style=&quot;&quot;&gt;&lt;font style=&quot;font-size: 15px;&quot;&gt;&amp;lt;&amp;lt;Class&amp;gt;&amp;gt;&lt;/font&gt;&lt;/i&gt;&lt;br&gt;&lt;span style=&quot;font-size: 18px;&quot;&gt;&lt;b&gt;Auction&lt;/b&gt;&lt;/span&gt;&lt;br&gt;&lt;/font&gt;" style="rounded=0;whiteSpace=wrap;html=1;strokeWidth=3;fillColor=default;strokeColor=#009900;" parent="1" vertex="1">
          <mxGeometry x="79" y="221" width="150" height="60" as="geometry" />
        </mxCell>
        <mxCell id="tjZRGbeKw34wrT0C9eUE-4" value="" style="endArrow=none;html=1;rounded=0;entryX=0.5;entryY=1;entryDx=0;entryDy=0;strokeWidth=2;fillColor=#d5e8d4;strokeColor=#009900;dashed=1;" parent="1" source="tjZRGbeKw34wrT0C9eUE-6" target="tjZRGbeKw34wrT0C9eUE-2" edge="1">
          <mxGeometry width="50" height="50" relative="1" as="geometry">
            <mxPoint x="-95" y="670" as="sourcePoint" />
            <mxPoint x="150" y="440" as="targetPoint" />
          </mxGeometry>
        </mxCell>
        <mxCell id="tjZRGbeKw34wrT0C9eUE-5" value="" style="endArrow=none;html=1;rounded=0;entryX=0.5;entryY=1;entryDx=0;entryDy=0;strokeWidth=2;fillColor=#d5e8d4;strokeColor=#009900;dashed=1;" parent="1" source="tjZRGbeKw34wrT0C9eUE-10" edge="1">
          <mxGeometry width="50" height="50" relative="1" as="geometry">
            <mxPoint x="140" y="671" as="sourcePoint" />
            <mxPoint x="140" y="281" as="targetPoint" />
          </mxGeometry>
        </mxCell>
        <mxCell id="tjZRGbeKw34wrT0C9eUE-7" value="" style="endArrow=none;html=1;rounded=0;strokeWidth=2;fillColor=#d5e8d4;strokeColor=#009900;dashed=1;entryX=0.516;entryY=1.009;entryDx=0;entryDy=0;entryPerimeter=0;" parent="1" target="tjZRGbeKw34wrT0C9eUE-6" edge="1">
          <mxGeometry width="50" height="50" relative="1" as="geometry">
            <mxPoint x="-95" y="710" as="sourcePoint" />
            <mxPoint x="-95" y="779" as="targetPoint" />
          </mxGeometry>
        </mxCell>
        <mxCell id="tjZRGbeKw34wrT0C9eUE-6" value="" style="rounded=0;whiteSpace=wrap;html=1;fillColor=#FFFFFF;strokeWidth=2;strokeColor=#009900;" parent="1" vertex="1">
          <mxGeometry x="-107.5" y="370" width="25" height="140" as="geometry" />
        </mxCell>
        <mxCell id="tjZRGbeKw34wrT0C9eUE-9" value="" style="endArrow=none;html=1;rounded=0;strokeWidth=2;strokeColor=#009900;startArrow=classic;startFill=1;exitX=-0.051;exitY=0.286;exitDx=0;exitDy=0;exitPerimeter=0;" parent="1" source="tjZRGbeKw34wrT0C9eUE-10" edge="1">
          <mxGeometry width="50" height="50" relative="1" as="geometry">
            <mxPoint x="138" y="440" as="sourcePoint" />
            <mxPoint x="-82" y="440" as="targetPoint" />
          </mxGeometry>
        </mxCell>
        <mxCell id="tjZRGbeKw34wrT0C9eUE-11" value="" style="endArrow=none;html=1;rounded=0;strokeWidth=2;fillColor=#d5e8d4;strokeColor=#009900;dashed=1;entryX=0.5;entryY=1;entryDx=0;entryDy=0;" parent="1" target="tjZRGbeKw34wrT0C9eUE-10" edge="1">
          <mxGeometry width="50" height="50" relative="1" as="geometry">
            <mxPoint x="140" y="710" as="sourcePoint" />
            <mxPoint x="139" y="510" as="targetPoint" />
          </mxGeometry>
        </mxCell>
        <mxCell id="tjZRGbeKw34wrT0C9eUE-10" value="" style="rounded=0;whiteSpace=wrap;html=1;fillColor=#FFFFFF;strokeWidth=2;strokeColor=#009900;" parent="1" vertex="1">
          <mxGeometry x="127.5" y="420" width="25" height="70" as="geometry" />
        </mxCell>
        <mxCell id="tjZRGbeKw34wrT0C9eUE-20" value="" style="endArrow=none;html=1;rounded=0;exitX=0;exitY=0.25;exitDx=0;exitDy=0;strokeWidth=2;strokeColor=#009900;startArrow=classic;startFill=1;" parent="1" edge="1">
          <mxGeometry width="50" height="50" relative="1" as="geometry">
            <mxPoint x="-483.5" y="369" as="sourcePoint" />
            <mxPoint x="-570" y="369" as="targetPoint" />
          </mxGeometry>
        </mxCell>
        <mxCell id="tjZRGbeKw34wrT0C9eUE-21" value="&lt;font style=&quot;font-size: 14px;&quot;&gt;&lt;i&gt;submit&lt;/i&gt;&lt;/font&gt;" style="text;html=1;align=center;verticalAlign=middle;resizable=0;points=[];autosize=1;strokeColor=none;fillColor=none;" parent="1" vertex="1">
          <mxGeometry x="-560" y="344" width="60" height="30" as="geometry" />
        </mxCell>
        <mxCell id="tjZRGbeKw34wrT0C9eUE-22" value="&lt;font style=&quot;font-size: 14px;&quot;&gt;&lt;i&gt;&amp;nbsp;AJAX GET&lt;/i&gt;&lt;br&gt;&lt;b&gt;/openAuctionsWithSearch&lt;/b&gt;&lt;br&gt;query&lt;br&gt;&lt;/font&gt;" style="text;html=1;align=center;verticalAlign=middle;resizable=0;points=[];autosize=1;strokeColor=none;fillColor=none;" parent="1" vertex="1">
          <mxGeometry x="-301.5" y="342" width="200" height="60" as="geometry" />
        </mxCell>
        <mxCell id="tjZRGbeKw34wrT0C9eUE-34" value="" style="group" parent="1" vertex="1" connectable="0">
          <mxGeometry x="-104.5" y="702" width="20" height="20" as="geometry" />
        </mxCell>
        <mxCell id="tjZRGbeKw34wrT0C9eUE-32" value="" style="endArrow=none;html=1;rounded=0;strokeWidth=2;fillColor=#d5e8d4;strokeColor=#009900;" parent="tjZRGbeKw34wrT0C9eUE-34" edge="1">
          <mxGeometry width="50" height="50" relative="1" as="geometry">
            <mxPoint y="20" as="sourcePoint" />
            <mxPoint x="20" as="targetPoint" />
          </mxGeometry>
        </mxCell>
        <mxCell id="tjZRGbeKw34wrT0C9eUE-33" value="" style="endArrow=none;html=1;rounded=0;strokeWidth=2;fillColor=#d5e8d4;strokeColor=#009900;" parent="tjZRGbeKw34wrT0C9eUE-34" edge="1">
          <mxGeometry width="50" height="50" relative="1" as="geometry">
            <mxPoint x="20" y="20" as="sourcePoint" />
            <mxPoint as="targetPoint" />
          </mxGeometry>
        </mxCell>
        <mxCell id="ki2tDZn7keGU7olpMhpC-1" value="&lt;i style=&quot;border-color: var(--border-color);&quot;&gt;&lt;font style=&quot;border-color: var(--border-color); font-size: 15px;&quot;&gt;&amp;lt;&amp;lt;form submit&amp;gt;&amp;gt;&lt;/font&gt;&lt;/i&gt;&lt;span style=&quot;font-size: 18px;&quot;&gt;&lt;br&gt;home.html&lt;br&gt;&lt;b style=&quot;&quot;&gt;buy.js&lt;/b&gt;&lt;br&gt;&lt;/span&gt;" style="rounded=0;whiteSpace=wrap;html=1;strokeWidth=3;fillColor=#00cc00;strokeColor=#009900;fillStyle=auto;fontColor=#ffffff;" parent="1" vertex="1">
          <mxGeometry x="-546" y="200" width="150" height="80" as="geometry" />
        </mxCell>
        <mxCell id="ki2tDZn7keGU7olpMhpC-2" value="" style="endArrow=none;html=1;rounded=0;entryX=0.5;entryY=1;entryDx=0;entryDy=0;strokeWidth=2;fillColor=#d5e8d4;strokeColor=#009900;dashed=1;" parent="1" source="ki2tDZn7keGU7olpMhpC-4" target="ki2tDZn7keGU7olpMhpC-1" edge="1">
          <mxGeometry width="50" height="50" relative="1" as="geometry">
            <mxPoint x="-471" y="670" as="sourcePoint" />
            <mxPoint x="-226" y="440" as="targetPoint" />
          </mxGeometry>
        </mxCell>
        <mxCell id="ki2tDZn7keGU7olpMhpC-4" value="" style="rounded=0;whiteSpace=wrap;html=1;fillColor=#00CC00;strokeWidth=2;strokeColor=#009900;" parent="1" vertex="1">
          <mxGeometry x="-483.5" y="340" width="25" height="370" as="geometry" />
        </mxCell>
        <mxCell id="ki2tDZn7keGU7olpMhpC-5" value="" style="endArrow=none;html=1;rounded=0;strokeWidth=2;strokeColor=#009900;startArrow=classic;startFill=1;" parent="1" edge="1">
          <mxGeometry width="50" height="50" relative="1" as="geometry">
            <mxPoint x="-110" y="400" as="sourcePoint" />
            <mxPoint x="-290" y="400" as="targetPoint" />
          </mxGeometry>
        </mxCell>
        <mxCell id="ki2tDZn7keGU7olpMhpC-13" value="&lt;i style=&quot;border-color: var(--border-color);&quot;&gt;&lt;font color=&quot;#ffffff&quot; style=&quot;border-color: var(--border-color); font-size: 15px;&quot;&gt;&amp;lt;&amp;lt;table handler&amp;gt;&amp;gt;&lt;/font&gt;&lt;/i&gt;&lt;font style=&quot;&quot; color=&quot;#ffffff&quot;&gt;&lt;br&gt;&lt;span style=&quot;font-size: 18px;&quot;&gt;&lt;b&gt;openAuctions&lt;br&gt;WithSearch&lt;/b&gt;&lt;/span&gt;&lt;br&gt;&lt;/font&gt;" style="rounded=0;whiteSpace=wrap;html=1;strokeWidth=3;fillColor=#00CC00;strokeColor=#009900;" parent="1" vertex="1">
          <mxGeometry x="-381" y="220" width="150" height="60" as="geometry" />
        </mxCell>
        <mxCell id="ki2tDZn7keGU7olpMhpC-14" value="" style="endArrow=none;html=1;rounded=0;entryX=0.5;entryY=1;entryDx=0;entryDy=0;strokeWidth=2;fillColor=#d5e8d4;strokeColor=#009900;dashed=1;" parent="1" source="ki2tDZn7keGU7olpMhpC-15" target="ki2tDZn7keGU7olpMhpC-13" edge="1">
          <mxGeometry width="50" height="50" relative="1" as="geometry">
            <mxPoint x="-306" y="670" as="sourcePoint" />
            <mxPoint x="-61" y="440" as="targetPoint" />
          </mxGeometry>
        </mxCell>
        <mxCell id="ki2tDZn7keGU7olpMhpC-16" value="" style="endArrow=none;html=1;rounded=0;strokeWidth=2;strokeColor=#009900;startArrow=classic;startFill=1;" parent="1" edge="1">
          <mxGeometry width="50" height="50" relative="1" as="geometry">
            <mxPoint x="-320" y="383" as="sourcePoint" />
            <mxPoint x="-458" y="383" as="targetPoint" />
          </mxGeometry>
        </mxCell>
        <mxCell id="ki2tDZn7keGU7olpMhpC-17" value="&lt;span style=&quot;font-size: 14px;&quot;&gt;show(e)&lt;/span&gt;" style="text;html=1;align=center;verticalAlign=middle;resizable=0;points=[];autosize=1;strokeColor=none;fillColor=none;" parent="1" vertex="1">
          <mxGeometry x="-426" y="357" width="70" height="30" as="geometry" />
        </mxCell>
        <mxCell id="6MIaR3WKCf1RQzaY556U-5" value="" style="endArrow=none;html=1;rounded=0;strokeWidth=2;strokeColor=#009900;startArrow=classic;startFill=1;" parent="1" edge="1">
          <mxGeometry width="50" height="50" relative="1" as="geometry">
            <mxPoint x="-82" y="480" as="sourcePoint" />
            <mxPoint x="128" y="480" as="targetPoint" />
          </mxGeometry>
        </mxCell>
        <mxCell id="6MIaR3WKCf1RQzaY556U-21" value="&lt;font color=&quot;#009900&quot; style=&quot;&quot;&gt;&lt;span style=&quot;font-size: 15px;&quot;&gt;&lt;i&gt;server side&lt;/i&gt;&lt;/span&gt;&lt;br&gt;&lt;/font&gt;" style="rounded=0;whiteSpace=wrap;html=1;strokeWidth=3;fillColor=default;strokeColor=#009900;" parent="1" vertex="1">
          <mxGeometry x="308" y="191" width="85" height="20" as="geometry" />
        </mxCell>
        <mxCell id="6MIaR3WKCf1RQzaY556U-22" value="&lt;font color=&quot;#ffffff&quot;&gt;&lt;span style=&quot;font-size: 15px;&quot;&gt;&lt;i&gt;client side&lt;/i&gt;&lt;/span&gt;&lt;/font&gt;" style="rounded=0;whiteSpace=wrap;html=1;strokeWidth=3;fillColor=#00CC00;strokeColor=#009900;" parent="1" vertex="1">
          <mxGeometry x="308" y="161" width="85" height="20" as="geometry" />
        </mxCell>
        <mxCell id="6MIaR3WKCf1RQzaY556U-26" value="" style="endArrow=none;html=1;rounded=0;strokeWidth=2;strokeColor=#009900;startArrow=classic;startFill=1;dashed=1;" parent="1" edge="1">
          <mxGeometry width="50" height="50" relative="1" as="geometry">
            <mxPoint x="-290" y="500" as="sourcePoint" />
            <mxPoint x="-116.75" y="500" as="targetPoint" />
          </mxGeometry>
        </mxCell>
        <mxCell id="6MIaR3WKCf1RQzaY556U-27" value="&lt;font style=&quot;&quot;&gt;&lt;span style=&quot;font-size: 14px;&quot;&gt;auctions&lt;/span&gt;&lt;br&gt;&lt;/font&gt;" style="text;html=1;align=center;verticalAlign=middle;resizable=0;points=[];autosize=1;strokeColor=none;fillColor=none;" parent="1" vertex="1">
          <mxGeometry x="-246.75" y="475" width="80" height="30" as="geometry" />
        </mxCell>
        <mxCell id="6MIaR3WKCf1RQzaY556U-28" value="" style="endArrow=none;html=1;rounded=0;strokeWidth=2;fillColor=#d5e8d4;strokeColor=#009900;dashed=1;entryX=0.5;entryY=1;entryDx=0;entryDy=0;" parent="1" target="ki2tDZn7keGU7olpMhpC-15" edge="1">
          <mxGeometry width="50" height="50" relative="1" as="geometry">
            <mxPoint x="-306" y="710" as="sourcePoint" />
            <mxPoint x="-306" y="520" as="targetPoint" />
          </mxGeometry>
        </mxCell>
        <mxCell id="6MIaR3WKCf1RQzaY556U-59" value="" style="endArrow=none;html=1;rounded=0;strokeWidth=2;strokeColor=#009900;startArrow=classic;startFill=1;" parent="1" edge="1">
          <mxGeometry width="50" height="50" relative="1" as="geometry">
            <mxPoint x="305.5" y="640" as="sourcePoint" />
            <mxPoint x="-289.5" y="640" as="targetPoint" />
          </mxGeometry>
        </mxCell>
        <mxCell id="6MIaR3WKCf1RQzaY556U-61" value="" style="endArrow=none;html=1;rounded=0;strokeWidth=2;strokeColor=#009900;startArrow=classic;startFill=1;" parent="1" edge="1">
          <mxGeometry width="50" height="50" relative="1" as="geometry">
            <mxPoint x="-290" y="560" as="sourcePoint" />
            <mxPoint x="-292.5" y="530" as="targetPoint" />
            <Array as="points">
              <mxPoint x="-260" y="560" />
              <mxPoint x="-260" y="530" />
            </Array>
          </mxGeometry>
        </mxCell>
        <mxCell id="6MIaR3WKCf1RQzaY556U-62" value="&lt;font style=&quot;&quot;&gt;&lt;span style=&quot;font-size: 14px;&quot;&gt;update(auctions)&lt;/span&gt;&lt;br&gt;&lt;/font&gt;" style="text;html=1;align=center;verticalAlign=middle;resizable=0;points=[];autosize=1;strokeColor=none;fillColor=none;" parent="1" vertex="1">
          <mxGeometry x="-265" y="530" width="130" height="30" as="geometry" />
        </mxCell>
        <mxCell id="6MIaR3WKCf1RQzaY556U-76" value="&lt;i style=&quot;border-color: var(--border-color);&quot;&gt;&lt;font color=&quot;#ffffff&quot; style=&quot;border-color: var(--border-color); font-size: 15px;&quot;&gt;&amp;lt;&amp;lt;global object&amp;gt;&amp;gt;&lt;br&gt;&lt;/font&gt;&lt;/i&gt;&lt;span style=&quot;font-size: 18px;&quot;&gt;&lt;font color=&quot;#ffffff&quot;&gt;&lt;b&gt;sessionStorage&lt;/b&gt;&lt;/font&gt;&lt;br&gt;&lt;/span&gt;" style="rounded=0;whiteSpace=wrap;html=1;strokeWidth=3;fillColor=#00CC00;strokeColor=#009900;" parent="1" vertex="1">
          <mxGeometry x="243" y="221" width="150" height="61" as="geometry" />
        </mxCell>
        <mxCell id="6MIaR3WKCf1RQzaY556U-77" value="" style="endArrow=none;html=1;rounded=0;entryX=0.5;entryY=1;entryDx=0;entryDy=0;strokeWidth=2;fillColor=#d5e8d4;strokeColor=#009900;dashed=1;exitX=0.5;exitY=0;exitDx=0;exitDy=0;" parent="1" source="6MIaR3WKCf1RQzaY556U-82" target="6MIaR3WKCf1RQzaY556U-76" edge="1">
          <mxGeometry width="50" height="50" relative="1" as="geometry">
            <mxPoint x="318" y="581" as="sourcePoint" />
            <mxPoint x="563" y="442" as="targetPoint" />
          </mxGeometry>
        </mxCell>
        <mxCell id="6MIaR3WKCf1RQzaY556U-78" value="" style="endArrow=none;html=1;rounded=0;strokeWidth=2;fillColor=#d5e8d4;strokeColor=#009900;dashed=1;entryX=0.5;entryY=1;entryDx=0;entryDy=0;" parent="1" target="6MIaR3WKCf1RQzaY556U-82" edge="1">
          <mxGeometry width="50" height="50" relative="1" as="geometry">
            <mxPoint x="318" y="710" as="sourcePoint" />
            <mxPoint x="318" y="531" as="targetPoint" />
          </mxGeometry>
        </mxCell>
        <mxCell id="ImflFla28foKCNnRYuBp-1" value="&lt;font style=&quot;&quot;&gt;&lt;i style=&quot;&quot;&gt;&lt;font style=&quot;font-size: 12px;&quot;&gt;&amp;lt;&amp;lt;static&amp;gt;&amp;gt;&lt;/font&gt;&lt;/i&gt;&lt;br&gt;&lt;span style=&quot;font-size: 14px;&quot;&gt;getAuctionsWithSearch(q)&lt;/span&gt;&lt;br&gt;&lt;/font&gt;" style="text;html=1;align=center;verticalAlign=middle;resizable=0;points=[];autosize=1;strokeColor=none;fillColor=none;" parent="1" vertex="1">
          <mxGeometry x="-75.5" y="399" width="190" height="40" as="geometry" />
        </mxCell>
        <mxCell id="lFbvkqLxVyMuqr9iLAXJ-1" value="&lt;font style=&quot;&quot;&gt;&lt;span style=&quot;font-size: 14px;&quot;&gt;setItem(auctionId,&lt;br&gt;JSON.stringify(auction))&lt;/span&gt;&lt;br&gt;&lt;/font&gt;" style="text;html=1;align=center;verticalAlign=middle;resizable=0;points=[];autosize=1;strokeColor=none;fillColor=none;" parent="1" vertex="1">
          <mxGeometry x="-286.5" y="596" width="170" height="50" as="geometry" />
        </mxCell>
        <mxCell id="lFbvkqLxVyMuqr9iLAXJ-6" value="" style="group" parent="1" vertex="1" connectable="0">
          <mxGeometry x="-381" y="588.25" width="45" height="25.75" as="geometry" />
        </mxCell>
        <mxCell id="lFbvkqLxVyMuqr9iLAXJ-4" value="" style="shape=card;whiteSpace=wrap;html=1;rotation=90;flipH=1;strokeColor=none;fillColor=#009900;size=10;" parent="lFbvkqLxVyMuqr9iLAXJ-6" vertex="1">
          <mxGeometry x="10" y="-9.25" width="25" height="45" as="geometry" />
        </mxCell>
        <mxCell id="lFbvkqLxVyMuqr9iLAXJ-5" value="&lt;font color=&quot;#ffffff&quot;&gt;&lt;b&gt;loop&lt;/b&gt;&lt;/font&gt;" style="text;html=1;strokeColor=none;fillColor=none;align=center;verticalAlign=middle;whiteSpace=wrap;rounded=0;" parent="lFbvkqLxVyMuqr9iLAXJ-6" vertex="1">
          <mxGeometry width="40" height="22.5" as="geometry" />
        </mxCell>
      </root>
    </mxGraphModel>
  </diagram>
</mxfile>
